<?xml version="1.0" encoding="utf-8"?>
<!DOCTYPE svg PUBLIC "-//W3C//DTD SVG 20010904//EN" "http://www.w3.org/TR/2001/REC-SVG-20010904/DTD/svg10.dtd">
<svg version="1.0" xmlns="http://www.w3.org/2000/svg" width="215px" height="215px" viewBox="0 0 215 215" preserveAspectRatio="xMidYMid meet">
 <g fill="#fefefe">
  <path d="M0 107.5 l0 -107.5 107.5 0 107.5 0 0 107.5 0 107.5 -107.5 0 -107.5 0 0 -107.5z"/>
 </g>
 <g fill="#dbdcde">
  <path d="M0 107.5 l0 -107.5 107.5 0 107.5 0 0 107.5 0 107.5 -107.5 0 -107.5 0 0 -107.5z m83 46.4 c6.5 -3.5 15.2 -7.2 19.2 -8 l4.8 -1.1 0.1 -4.9 c0.1 -2.7 0.2 -6.1 0.3 -7.6 0.1 -2.5 -0.2 -2.8 -2.9 -2.4 -3.5 0.4 -7.7 2.4 -12.2 5.7 -4.7 3.6 -7.2 3.1 -12.5 -2.3 -9 -9.3 -10.9 -16.6 -6.1 -22.9 2.9 -3.8 2.9 -3.4 -2.2 -12.3 -1.3 -2.4 -1 -5.5 0.5 -4.6 2.1 1.3 11.6 2.4 22.9 2.6 l12.4 0.3 0.1 -19.8 0.1 -19.8 -6 0.6 c-11.2 1.2 -23.2 9.2 -28.1 18.8 -3 5.9 -5.4 15.7 -5.4 22.4 0 7.2 -1.8 16.2 -4.2 21.2 -2.9 6.1 -2 13.3 2.8 22.8 5.3 10.6 8.1 13.6 11.9 12.8 1.6 -0.4 3.6 -1 4.5 -1.5z m9.3 -23.9 c3 -2.2 7.7 -4.6 10.4 -5.3 l4.8 -1.2 0 -9.8 c0 -9.1 -0.1 -9.7 -2.1 -9.7 -1.1 0 -4.2 1.4 -7 3.2 -2.7 1.7 -8.3 4.4 -12.4 5.9 -6.6 2.3 -7.5 3 -7.8 5.4 -0.4 3 1.5 8.5 2.9 8.5 0.5 0 0.9 0.5 0.9 1.1 0 1.2 3.2 5.8 4.1 5.9 0.3 0 3.1 -1.8 6.2 -4z"/>
  <path d="M69.6 127.3 c-0.7 -1.8 0.9 -4.1 2.1 -2.9 0.4 0.4 0.1 1.2 -0.7 1.7 -1.3 0.9 -1.2 1 0.2 0.5 2.2 -0.7 3.3 1 1.2 1.8 -2.1 0.8 -2.1 0.8 -2.8 -1.1z"/>
  <path d="M67.1 123.4 c0.6 -0.8 1.8 -1.4 2.6 -1.4 2 0 0.8 1.6 -1.7 2.3 -1.7 0.4 -1.9 0.3 -0.9 -0.9z"/>
 </g>
 <g fill="#b6b7bb">
  <path d="M0 107.5 l0 -107.5 107.5 0 107.5 0 0 107.5 0 107.5 -107.5 0 -107.5 0 0 -107.5z m97.5 48.7 l10 -1.7 0.1 -4.5 c0.2 -4.5 0.2 -4.5 3.6 -4.3 1.9 0.1 7.9 2.2 13.4 4.7 14 6.3 14.6 6.4 17.7 2.6 1.4 -1.7 4.3 -6.4 6.3 -10.6 4.9 -9.7 5.6 -16.6 2.4 -22.6 -1.6 -3.1 -2.5 -7.3 -3.2 -14.8 -1.9 -21.1 -4.5 -28.9 -12.1 -36.8 -8.2 -8.5 -24.4 -13.5 -35.9 -11.1 -12.5 2.6 -22.8 10.3 -27.4 20.3 -2.7 6 -3.9 11.6 -5.3 26.9 -0.7 7.3 -1.7 12 -3.2 14.9 -4.2 8.3 -0.4 23.4 8.5 33.6 5 5.8 8.6 6.2 25.1 3.4z"/>
  <path d="M131.5 149.7 c-1 -0.8 -1.6 -2.3 -1.3 -3.8 0.2 -1.9 0.9 -2.4 3.3 -2.4 2.5 0 3.1 0.4 3.3 2.7 0.4 3.4 -2.6 5.4 -5.3 3.5z"/>
  <path d="M79.6 133 c-5.1 -5.5 -8.5 -11.9 -8.6 -16.2 0 -1.4 1.1 -4 2.5 -5.6 1.4 -1.7 2.5 -3.7 2.5 -4.6 0 -1 -1.1 -3.4 -2.5 -5.4 -3.2 -4.8 -3.4 -7.7 -0.2 -6.8 9.9 2.8 56.7 2.8 68.5 -0.1 3.1 -0.7 3 2.7 -0.3 7.5 -1.4 2 -2.5 4 -2.5 4.5 0 0.4 1.1 2.5 2.5 4.5 4.4 6.5 2.8 12.8 -5.6 21.7 -3.9 4.1 -5.9 5.5 -8 5.5 -1.5 0 -3.1 -0.5 -3.4 -1 -1.4 -2.3 -8.8 -6.1 -13.5 -7 -6.1 -1.2 -12.2 0.5 -18.2 4.9 -5.8 4.3 -7.7 4 -13.2 -1.9z m12.4 -2.5 c2.2 -1.9 6.5 -4.2 9.4 -5.1 7.7 -2.4 13.1 -1.4 20.6 4.2 4.7 3.5 6.4 4.2 7.8 3.5 2.9 -1.5 7.4 -10.7 7 -14.3 -0.3 -2.9 -0.8 -3.3 -7 -5.4 -3.7 -1.2 -9.5 -3.9 -12.8 -6 -5.3 -3.2 -6.5 -3.6 -10.8 -3.2 -3.4 0.3 -6.3 1.5 -9.3 3.6 -2.4 1.7 -7.4 4.1 -11.2 5.2 -7.7 2.5 -9.2 4.3 -7.5 9.2 1.5 4.6 6.6 11.8 8.3 11.8 0.7 0 3.2 -1.6 5.5 -3.5z"/>
  <path d="M140 130 c0 -0.5 0.7 -1 1.5 -1 0.8 0 1.5 0.5 1.5 1 0 0.6 -0.7 1 -1.5 1 -0.8 0 -1.5 -0.4 -1.5 -1z"/>
  <path d="M71.1 127.3 c1.2 -1.5 1.2 -1.6 -0.3 -1 -1 0.3 -1.8 0.2 -1.8 -0.2 0 -1.6 2.8 -2 3.4 -0.4 0.7 1.7 -0.1 3.3 -1.6 3.3 -0.6 0 -0.5 -0.7 0.3 -1.7z"/>
  <path d="M142.2 128.3 c-1.8 -0.7 -0.4 -2.3 1.6 -1.7 1.4 0.5 1.5 0.4 0.2 -0.5 -0.8 -0.5 -1.1 -1.3 -0.7 -1.7 1.2 -1.2 2.8 1.1 2.1 2.9 -0.6 1.8 -1 1.9 -3.2 1z"/>
  <path d="M144.5 123 c-0.3 -0.5 0.1 -1 0.9 -1 0.8 0 1.8 0.5 2.1 1 0.3 0.6 -0.1 1 -0.9 1 -0.8 0 -1.8 -0.4 -2.1 -1z"/>
 </g>
 <g fill="#8c929f">
  <path d="M0 107.5 l0 -107.5 107.5 0 107.5 0 0 107.5 0 107.5 -107.5 0 -107.5 0 0 -107.5z m92.1 50 c8.2 -2.1 22.7 -2.2 32.3 -0.1 6.1 1.3 8.6 1.4 11.2 0.6 6.4 -2.1 13.9 -13 16.9 -24.5 1.6 -6.3 1.1 -10.5 -1.6 -15.1 -1.3 -2.1 -2.2 -6.7 -3 -15.5 -0.6 -6.8 -1.7 -14.9 -2.6 -17.9 -4.1 -15.1 -12.6 -23.8 -26.8 -27.4 -18.8 -4.9 -37.2 2.4 -45.8 18.3 -3.3 5.9 -4.3 10.6 -5.7 25.6 -0.7 8.2 -1.7 13.2 -3 15.8 -4.2 7.9 -3.2 17.3 2.8 27.7 7.9 13.7 12.3 15.9 25.3 12.5z"/>
  <path d="M130.5 148 c-0.7 -2.3 1 -5 3 -5 2 0 3.7 2.7 3 5 -0.4 1.3 -1.5 2 -3 2 -1.5 0 -2.6 -0.7 -3 -2z"/>
  <path d="M80.2 133.4 c-4.3 -4.5 -9.2 -13.3 -9.2 -16.5 0 -0.9 1.4 -3.5 3.1 -5.9 l3.1 -4.2 -3.1 -5 c-4.1 -6.5 -4 -7.1 1.2 -6.4 15.7 2.1 60.7 1.5 67.1 -1 2.5 -1 2 3.2 -0.9 7 -3.1 4.1 -3.1 6 0 9.8 4.5 5.4 2.7 11.9 -6 21.6 -5.3 5.9 -7.8 6.5 -12.2 2.8 -6.6 -5.5 -15.2 -7.8 -21.7 -5.6 -2 0.6 -5.8 2.7 -8.6 4.6 -2.7 1.9 -5.7 3.4 -6.6 3.4 -1 0 -3.7 -2.1 -6.2 -4.6z m11.9 -2.8 c2.2 -1.8 6.4 -4.1 9.5 -5.1 8 -2.5 14.1 -1 22.5 5.6 2 1.6 4.2 2.9 4.8 2.9 1.7 0 7 -7.9 8.2 -12.2 1.3 -5.1 0.5 -6.1 -7.9 -8.8 -3.7 -1.2 -8.5 -3.5 -10.7 -5 -8.2 -5.7 -13.7 -5.7 -22.2 0 -2.6 1.6 -7.2 3.8 -10.2 4.7 -3.1 0.9 -6.5 2.5 -7.5 3.4 -1.7 1.6 -1.8 2.2 -0.8 5.7 1.5 4.9 6.7 12.2 8.8 12.2 0.9 0 3.4 -1.5 5.5 -3.4z"/>
  <path d="M141 130 c-1.3 -0.8 -1.2 -1 0.3 -1 1 0 1.5 -0.4 1.2 -1 -0.3 -0.5 -0.1 -1 0.4 -1 1.3 0 1.4 1 0.3 2.7 -0.5 0.8 -1.3 0.9 -2.2 0.3z"/>
  <path d="M144 125.5 c-0.9 -1.1 -0.9 -1.5 -0.1 -1.5 0.7 0 0.9 -0.4 0.6 -1 -0.3 -0.5 -0.2 -1 0.4 -1 0.5 0 1.3 0.5 1.6 1 0.3 0.6 0.2 1 -0.4 1 -0.6 0 -0.8 0.7 -0.5 1.5 0.4 0.8 0.4 1.5 0.1 1.5 -0.2 0 -1 -0.7 -1.7 -1.5z"/>
 </g>
 <g fill="#828691">
  <path d="M160 190.5 c0 -1.1 -1.1 -1.5 -4 -1.5 -2.2 0 -4 -0.4 -4 -1 0 -0.6 -4.7 -1 -12 -1 -6.6 0 -12 0.4 -12 0.9 0 0.5 -3.6 1.2 -8 1.6 -10.1 0.9 -9 1.6 -33.8 -22.2 -5.3 -5.1 -10.3 -9.3 -11.1 -9.3 -0.8 0 -1.2 -0.2 -0.9 -0.5 0.3 -0.3 2.5 0 5 0.6 3.7 1 6 0.9 12.9 -0.4 10.5 -2.1 20.3 -2.2 31 -0.1 10.2 1.9 13.9 1.3 18.3 -3.1 4.5 -4.5 11.2 -18 12.1 -24.4 0.6 -4.2 0.3 -5.9 -1.9 -10.6 -1.9 -4.2 -2.8 -8.4 -3.6 -17.8 -1.2 -13.3 -3.1 -21.4 -6.2 -26.4 -1.1 -1.8 -1.5 -3.3 -1 -3.3 0.6 0 1.2 0.4 1.4 0.9 0.2 0.5 6 6.8 13.1 14 7 7.2 12.7 13.4 12.7 13.9 0 0.4 0.8 1.2 1.9 1.9 2.7 1.7 6.1 9.3 6.1 13.6 0 2 0.5 3.7 1 3.7 0.6 0 1 1.8 1 4 0 2.8 0.4 4 1.4 4 1.2 0 1.4 1.8 1.3 9.3 -0.2 7.1 0.2 10 1.6 12.6 0.9 1.9 1.7 4.1 1.7 5.1 0 0.9 0.6 2.2 1.3 2.9 1 1.1 1 1.4 0 1.8 -0.7 0.3 -1.3 1.5 -1.3 2.7 0 1.2 -0.4 2.6 -0.8 3.2 -0.5 0.5 -1.5 2.9 -2.2 5.3 -0.9 2.6 -2.1 4.6 -3.2 4.9 -1.3 0.3 -1.8 1.4 -1.8 4.3 0 2.2 -0.5 3.9 -1.1 3.9 -0.6 0 -2 1.1 -3.1 2.5 -1.1 1.4 -3 2.5 -4.2 2.5 -1.2 0 -3.1 0.7 -4.2 1.5 -2.5 1.9 -3.4 1.9 -3.4 0z"/>
  <path d="M130.5 147.9 c-1.4 -4.3 4.5 -6.6 6.1 -2.4 0.8 1.9 -1.3 4.5 -3.7 4.5 -1 0 -2.1 -1 -2.4 -2.1z"/>
  <path d="M80.2 133.4 c-4.3 -4.5 -9.2 -13.3 -9.2 -16.5 0 -0.9 1.4 -3.5 3 -5.8 l3.1 -4.2 -3.2 -5.5 c-1.7 -3 -2.9 -5.8 -2.6 -6 0.3 -0.3 4.5 -0.1 9.4 0.5 15.1 1.9 55.4 0.9 61.6 -1.4 2.6 -1 2.2 2.3 -0.8 6.7 -1.4 2 -2.5 4.4 -2.5 5.4 0 0.9 1.1 2.9 2.5 4.6 4.4 5.2 2.5 12.2 -5.9 21.6 -5.5 6 -7.9 6.5 -12.4 2.7 -9.7 -8.2 -19.8 -8.5 -30.3 -0.9 -2.6 1.9 -5.5 3.4 -6.5 3.4 -0.9 0 -3.7 -2.1 -6.2 -4.6z m12.4 -2.9 c2.5 -1.9 7 -4.2 10.1 -5.1 7 -2 12 -0.8 19.8 4.7 2.9 2.2 5.8 3.9 6.4 3.9 1.6 0 7 -7.8 8.3 -12.1 1.4 -5 0.4 -6.2 -7.6 -8.9 -3.5 -1.1 -8.5 -3.5 -11.2 -5.2 -9.1 -5.8 -13.7 -5.7 -22.8 0.6 -2.1 1.4 -7 3.5 -10.7 4.6 -7.7 2.3 -9.2 4.5 -6.9 10.1 1.9 4.6 6.8 10.9 8.5 10.9 0.8 0 3.5 -1.6 6.1 -3.5z"/>
 </g>
 <g fill="#777a85">
  <path d="M91.7 171.2 c-1.9 -1.6 -5.9 -5.1 -8.7 -7.8 l-5.1 -5 3.8 0.4 c2.1 0.2 7.6 -0.3 12.2 -1.2 10.6 -2 15 -2 28.9 0.1 10.5 1.5 11.5 1.5 14.7 0 6.3 -3 15.2 -18.6 16.2 -28.4 0.5 -4.3 0.1 -6.1 -2.1 -10.5 -2.1 -4.3 -2.8 -7.6 -3.6 -17.8 -1 -13.4 -2.1 -18.2 -5.2 -24.5 l-2 -4 3.2 3.7 c1.7 2.1 5 5.7 7.4 8 2.4 2.4 4.9 6 5.7 8.1 0.7 2 1.6 3.7 2 3.7 1 0 1.9 5.9 3 21 0.7 9 1.5 14 2.5 15.1 0.8 0.8 1.4 2.1 1.4 2.7 0 0.7 0.5 1.2 1 1.2 1.7 0 1.1 8.6 -1 13.1 -1.1 2.4 -2 4 -2 3.4 -0.1 -0.5 -0.7 0.4 -1.5 2.2 -0.7 1.7 -1.1 4.1 -0.8 5.3 0.4 1.6 0 2.3 -1.6 2.7 -1.2 0.3 -2.4 1.6 -2.7 2.8 -0.3 1.4 -2.4 3.3 -5.3 4.9 l-4.8 2.6 -10.9 -1.5 c-8.9 -1.2 -13.5 -1.2 -25.4 -0.3 -8 0.6 -14.8 1.5 -15.1 2 -0.3 0.5 -2.2 -0.4 -4.2 -2z"/>
  <path d="M131.2 148.8 c-3 -3 0.9 -6.9 4.4 -4.3 1.5 1.1 1.7 1.7 0.8 3.2 -1.4 2.3 -3.6 2.7 -5.2 1.1z"/>
  <path d="M80.5 133.3 c-9 -9.1 -10.9 -16.3 -6 -22.6 3 -4.1 3 -4.2 -1.6 -11.5 -1.2 -1.8 -1.9 -3.5 -1.6 -3.8 0.2 -0.3 4.2 0 8.8 0.6 15.2 1.9 55.9 0.9 62.3 -1.6 2.3 -0.9 2.1 2.7 -0.3 5.7 -4.1 5.4 -4.2 6.4 -1.1 10.5 3.3 4.4 3.6 6.9 1.5 12.1 -2.1 5 -10.1 14.2 -13.1 14.9 -1.7 0.4 -3.4 -0.1 -5.9 -2 -11.1 -8.5 -20.6 -8.6 -31.7 -0.6 -2.3 1.7 -4.7 3 -5.4 3 -0.6 0 -3.3 -2.1 -5.9 -4.7z m9.5 -0.9 c2.2 -2.6 9.2 -6.2 14.1 -7.3 6.1 -1.4 12.8 0.6 18.8 5.4 2.4 1.9 5 3.5 5.7 3.5 1.9 0 7.2 -7.5 8.6 -12.1 1.4 -5 0.4 -6.2 -7.6 -8.9 -3.5 -1.1 -8.5 -3.5 -11.2 -5.2 -9 -5.7 -14 -5.8 -21.4 -0.3 -1.8 1.3 -6.8 3.6 -11.2 5.1 -9 3 -10.3 5 -7.4 11.3 4.5 9.4 8.5 12.4 11.6 8.5z"/>
 </g>
 <g fill="#70727a">
  <path d="M83.1 162.7 l-4.3 -3.2 5.8 -0.6 c3.3 -0.4 9.8 -1.2 14.6 -2 7.4 -1.1 10.3 -1 18 0.1 5.1 0.8 11.9 1.5 15 1.5 6.8 0 9 -1.7 14.7 -11.2 2.1 -3.5 4.1 -6 4.6 -5.5 0.4 0.4 0.5 0.1 0.1 -0.5 -0.4 -0.7 0 -3.3 0.9 -5.8 2.2 -6.5 1.9 -11.8 -1 -17.3 -2 -3.8 -2.6 -7.2 -3.5 -18.2 -0.8 -9.9 -1.7 -14.9 -3.4 -19.2 -1.5 -3.6 -1.9 -5.4 -1 -4.7 0.7 0.6 1.6 1.9 1.9 3 0.4 1.1 1.1 1.7 1.6 1.4 0.5 -0.4 0.9 0.1 0.9 0.9 0 0.9 0.4 1.6 0.9 1.6 1.5 0 3.5 11 2.2 12.3 -0.6 0.6 -1.1 1.8 -1 2.7 0 1 0.3 0.9 0.9 -0.5 0.8 -1.9 0.9 -1.9 0.9 0.3 0.1 1.3 0.6 3.2 1.2 4.3 0.9 1.7 0.7 2 -0.8 1.7 -1 -0.2 -2.2 -0.7 -2.6 -1.3 -0.5 -0.6 -0.7 -0.4 -0.4 0.5 0.2 0.8 1 1.4 1.6 1.3 0.6 -0.2 1.1 1.1 1.1 3.2 0 1.9 0.4 3.5 0.9 3.5 1.4 0 3.4 9.7 2.7 13.3 -0.3 1.7 -0.1 3.9 0.4 4.7 0.8 1.1 0.9 0.8 0.4 -1.1 -0.3 -1.5 -0.1 -3 0.5 -3.3 0.7 -0.4 1.1 0.1 1.1 1.4 0 1.2 0.5 1.8 1 1.5 0.6 -0.3 1 0.1 1 1 0 0.9 -0.4 1.3 -1 1 -0.5 -0.3 -1 0.1 -1 0.9 0 0.9 0.3 1.6 0.8 1.6 0.4 0 0.7 1.5 0.8 3.3 l0.1 3.2 -1.3 -3 -1.3 -3 0.1 3.5 c0.1 7 -1.5 15.4 -3.4 17.4 -1 1.1 -1.8 2.7 -1.8 3.5 0 1.9 -7.3 6.6 -11.5 7.5 -1.6 0.4 -5.6 0 -8.8 -0.9 -3.2 -0.8 -8.9 -1.5 -12.7 -1.5 -3.8 0 -7.2 -0.4 -7.5 -1 -0.4 -0.6 -1.6 -0.5 -3.4 0.5 -1.5 0.7 -3.7 1.2 -4.7 0.9 -1 -0.3 -3.5 0.4 -5.5 1.4 -2.5 1.3 -4.4 1.6 -6.4 1 -1.6 -0.4 -3.2 -0.3 -3.5 0.1 -0.3 0.5 -2.5 -0.5 -4.9 -2.2z m68.4 -14 c0.1 -3.4 -0.1 -3.4 -2 0.2 -1.3 2.7 -1.3 2.9 0.3 2.7 1.1 -0.2 1.7 -1.2 1.7 -2.9z"/>
  <path d="M131.1 148.7 c-2.5 -3.1 1.3 -6.6 4.6 -4.2 1.4 1.1 1.6 1.8 0.7 3.2 -1.4 2.3 -3.8 2.8 -5.3 1z"/>
  <path d="M80.6 133.3 c-9.1 -9.1 -11 -16.3 -6.1 -22.6 3 -4.1 3 -4.2 -1.6 -11.5 -1.2 -1.8 -1.9 -3.5 -1.6 -3.8 0.3 -0.3 4 -0.1 8.2 0.5 14.1 2 56.5 1 62.9 -1.5 2.3 -0.9 2.1 2.7 -0.3 5.7 -4.1 5.4 -4.2 6.4 -1.1 10.5 3.3 4.4 3.6 6.9 1.5 12.1 -2.1 5 -10.1 14.2 -13.1 14.9 -1.7 0.4 -3.4 -0.1 -5.9 -2 -11.1 -8.5 -20.5 -8.7 -31.5 -0.7 -2.4 1.7 -4.8 3.1 -5.5 3.1 -0.6 0 -3.3 -2.1 -5.9 -4.7z m9.4 -0.9 c2.2 -2.6 9.2 -6.2 14.1 -7.3 6.1 -1.4 12.8 0.6 18.8 5.4 2.4 1.9 5 3.5 5.7 3.5 1.9 0 7.2 -7.5 8.6 -12.1 1.4 -5 0.4 -6.2 -7.5 -8.8 -3.4 -1.2 -8.7 -3.6 -11.7 -5.5 -3 -1.9 -6.9 -3.7 -8.6 -4 -3.4 -0.8 -9.4 1.2 -12.6 4.1 -0.9 0.8 -5.7 2.9 -10.5 4.7 -7.8 2.8 -8.8 3.4 -9.1 5.8 -0.3 2.7 1.3 6.8 5.2 12.5 2.3 3.6 5.5 4.3 7.6 1.7z"/>
 </g>
 <g fill="#454746">
  <path d="M131.5 149.1 c-0.3 -0.5 0.4 -1.6 1.6 -2.4 1.5 -1.1 1.7 -1.6 0.7 -2 -0.9 -0.4 -0.8 -0.6 0.3 -0.6 2.4 -0.1 3.1 2.5 1.3 4.4 -1.8 1.7 -3 1.9 -3.9 0.6z"/>
  <path d="M81.8 134.3 c-9.5 -8.6 -12.3 -17.5 -7.3 -23.5 1.4 -1.6 2.5 -3.5 2.5 -4.1 0 -0.7 -1.1 -2.9 -2.5 -4.9 -3.2 -4.8 -3.3 -7.3 -0.2 -6.3 4.2 1.3 46.4 1.8 57.8 0.6 6.1 -0.7 11.4 -0.9 11.7 -0.6 0.4 0.3 0 1.6 -0.8 2.8 -5.3 8.5 -5.2 7.8 -2 12.6 1.7 2.4 3 5.4 3 6.5 0 4.5 -8.5 16.9 -13.4 19.6 -2.3 1.2 -3 1 -7.8 -2.2 -12 -7.9 -20.8 -7.7 -31.7 0.6 -1.9 1.4 -3.8 2.6 -4.3 2.6 -0.4 0 -2.7 -1.7 -5 -3.7z m8.7 -2.3 c3 -3.3 12.4 -7.2 17.4 -7.3 4.9 0 10.7 2.4 15.9 6.8 1.6 1.4 3.8 2.5 4.8 2.5 3.5 0 10.1 -12.1 9 -16.4 -0.5 -2.1 -1.7 -2.9 -7.4 -4.5 -3.7 -1.1 -9.2 -3.6 -12.2 -5.6 -8.7 -5.6 -14 -5.7 -21.3 -0.1 -1.8 1.4 -6.6 3.6 -10.7 4.9 -4.1 1.3 -7.8 3.1 -8.3 3.9 -1.5 2.3 0 8 3.4 13.2 3.4 5.1 6.4 6 9.4 2.6z"/>
 </g>
 <g fill="#010101">
  <path d="M123.9 135.4 c-4.9 -3.7 -8.9 -5.7 -12.8 -6.3 -2.2 -0.4 -3.5 -1.2 -3.7 -2.4 -0.5 -3.8 9.7 -0.7 16.9 5.1 2.1 1.7 4.5 2.8 5.3 2.5 2.4 -0.9 8.4 -11.5 8.4 -14.9 0 -3.8 -1.1 -4.8 -7 -6.4 -5 -1.4 -11.3 -4.4 -14.9 -7.1 -1.2 -1 -3.8 -2.1 -5.6 -2.5 -3.2 -0.6 -3.4 -1.1 -2.6 -5.6 0 -0.5 4.9 -0.8 10.9 -0.8 5.9 0 13.8 -0.5 17.6 -1 3.8 -0.6 7 -0.9 7.2 -0.7 0.2 0.2 -0.5 1.9 -1.6 3.8 -4.6 7.8 -4.5 7.5 -1.5 11.5 3.3 4.3 3.5 8.5 0.6 14.2 -1.9 3.6 -11.2 13.2 -12.9 13.2 -0.4 0 -2.4 -1.2 -4.3 -2.6z"/>
 </g>
</svg>